999
dxfrw 0.6.3
  0
SECTION
  2
HEADER
  9
$ACADVER
  1
AC1021
  9
$DWGCODEPAGE
  3
ANSI_1252
  9
$INSBASE
 10
0
 20
0
 30
0
  9
$EXTMIN
 10
-27.5
 20
-21.0407116444321
 30
0
  9
$EXTMAX
 10
281.0407116444321
 20
217.5
 30
0
  9
$LIMMIN
 10
0
 20
0
  9
$LIMMAX
 10
420
 20
297
  9
$ORTHOMODE
 70
    0
  9
$REGENMODE
 70
    1
  9
$FILLMODE
 70
    1
  9
$QTEXTMODE
 70
    0
  9
$MIRRTEXT
 70
    0
  9
$LTSCALE
 40
1
  9
$ATTMODE
 70
    0
  9
$TEXTSIZE
 40
2.5
  9
$TRACEWID
 40
15.68
  9
$TEXTSTYLE
  7
STANDARD
  9
$CLAYER
  8
0
  9
$CELTYPE
  6
BYLAYER
  9
$CECOLOR
 62
  256
  9
$CELTSCALE
 40
1
  9
$DISPSILH
 70
    0
  9
$DIMSCALE
 40
2.5
  9
$DIMASZ
 40
2.5
  9
$DIMEXO
 40
0.0625
  9
$DIMDLI
 40
3.75
  9
$DIMRND
 40
0
  9
$DIMDLE
 40
0
  9
$DIMEXE
 40
0.125
  9
$DIMTP
 40
0
  9
$DIMTM
 40
0
  9
$DIMTXT
 40
2
  9
$DIMCEN
 40
2.5
  9
$DIMTSZ
 40
0
  9
$DIMTOL
 70
    0
  9
$DIMLIM
 70
    0
  9
$DIMTIH
 70
    0
  9
$DIMTOH
 70
    0
  9
$DIMSE1
 70
    0
  9
$DIMSE2
 70
    0
  9
$DIMTAD
 70
    1
  9
$DIMZIN
 70
    8
  9
$DIMBLK
  1

  9
$DIMASO
 70
    1
  9
$DIMSHO
 70
    1
  9
$DIMPOST
  1

  9
$DIMAPOST
  1

  9
$DIMALT
 70
    0
  9
$DIMALTD
 70
    3
  9
$DIMALTF
 40
0.03937
  9
$DIMLFAC
 40
1
  9
$DIMTOFL
 70
    1
  9
$DIMTVP
 40
0
  9
$DIMTIX
 70
    0
  9
$DIMSOXD
 70
    0
  9
$DIMSAH
 70
    0
  9
$DIMBLK1
  1

  9
$DIMBLK2
  1

  9
$DIMSTYLE
  2
STANDARD
  9
$DIMCLRD
 70
    0
  9
$DIMCLRE
 70
    0
  9
$DIMCLRT
 70
    0
  9
$DIMTFAC
 40
1
  9
$DIMGAP
 40
1
  9
$DIMJUST
 70
    0
  9
$DIMSD1
 70
    0
  9
$DIMSD2
 70
    0
  9
$DIMTOLJ
 70
    0
  9
$DIMTZIN
 70
    8
  9
$DIMALTZ
 70
    0
  9
$DIMALTTZ
 70
    0
  9
$DIMUPT
 70
    0
  9
$DIMDEC
 70
    1
  9
$DIMTDEC
 70
    2
  9
$DIMALTU
 70
    2
  9
$DIMALTTD
 70
    3
  9
$DIMTXSTY
  7
standard
  9
$DIMAUNIT
 70
    0
  9
$DIMADEC
 70
    0
  9
$DIMALTRND
 40
0
  9
$DIMAZIN
 70
    0
  9
$DIMDSEP
 70
    0
  9
$DIMATFIT
 70
    3
  9
$DIMFRAC
 70
    0
  9
$DIMLDRBLK
  1
STANDARD
  9
$DIMLUNIT
 70
    2
  9
$DIMLWD
 70
   -2
  9
$DIMLWE
 70
   -2
  9
$DIMTMOVE
 70
    0
  9
$DIMFXL
 40
1
  9
$DIMFXLON
 70
    0
  9
$DIMJOGANG
 40
0.7854
  9
$DIMTFILL
 70
    0
  9
$DIMTFILLCLR
 70
    0
  9
$DIMARCSYM
 70
    0
  9
$DIMLTYPE
  6

  9
$DIMLTEX1
  6

  9
$DIMLTEX2
  6

  9
$LUNITS
 70
    2
  9
$LUPREC
 70
    4
  9
$SKETCHINC
 40
1
  9
$FILLETRAD
 40
0
  9
$AUNITS
 70
    0
  9
$AUPREC
 70
    2
  9
$MENU
  1
.
  9
$ELEVATION
 40
0
  9
$PELEVATION
 40
0
  9
$THICKNESS
 40
0
  9
$LIMCHECK
 70
    0
  9
$CHAMFERA
 40
0
  9
$CHAMFERB
 40
0
  9
$CHAMFERC
 40
0
  9
$CHAMFERD
 40
0
  9
$SKPOLY
 70
    0
  9
$USRTIMER
 70
    1
  9
$ANGBASE
 50
0
  9
$ANGDIR
 70
    0
  9
$PDMODE
 70
   34
  9
$PDSIZE
 40
0
  9
$PLINEWID
 40
0
  9
$SPLFRAME
 70
    0
  9
$SPLINETYPE
 70
    2
  9
$SPLINESEGS
 70
    8
  9
$HANDSEED
  5
20000
  9
$SURFTAB1
 70
    6
  9
$SURFTAB2
 70
    6
  9
$SURFTYPE
 70
    6
  9
$SURFU
 70
    6
  9
$SURFV
 70
    6
  9
$UCSBASE
  2

  9
$UCSNAME
  2

  9
$UCSORG
 10
0
 20
0
 30
0
  9
$UCSXDIR
 10
1
 20
0
 30
0
  9
$UCSYDIR
 10
0
 20
1
 30
0
  9
$UCSORTHOREF
  2

  9
$UCSORTHOVIEW
 70
    0
  9
$UCSORGTOP
 10
0
 20
0
 30
0
  9
$UCSORGBOTTOM
 10
0
 20
0
 30
0
  9
$UCSORGLEFT
 10
0
 20
0
 30
0
  9
$UCSORGRIGHT
 10
0
 20
0
 30
0
  9
$UCSORGFRONT
 10
0
 20
0
 30
0
  9
$UCSORGBACK
 10
0
 20
0
 30
0
  9
$PUCSBASE
  2

  9
$PUCSNAME
  2

  9
$PUCSORG
 10
0
 20
0
 30
0
  9
$PUCSXDIR
 10
1
 20
0
 30
0
  9
$PUCSYDIR
 10
0
 20
1
 30
0
  9
$PUCSORTHOREF
  2

  9
$PUCSORTHOVIEW
 70
    0
  9
$PUCSORGTOP
 10
0
 20
0
 30
0
  9
$PUCSORGBOTTOM
 10
0
 20
0
 30
0
  9
$PUCSORGLEFT
 10
0
 20
0
 30
0
  9
$PUCSORGRIGHT
 10
0
 20
0
 30
0
  9
$PUCSORGFRONT
 10
0
 20
0
 30
0
  9
$PUCSORGBACK
 10
0
 20
0
 30
0
  9
$USERI1
 70
    0
  9
$USERI2
 70
    0
  9
$USERI3
 70
    0
  9
$USERI4
 70
    0
  9
$USERI5
 70
    0
  9
$USERR1
 40
0
  9
$USERR2
 40
0
  9
$USERR3
 40
0
  9
$USERR4
 40
0
  9
$USERR5
 40
0
  9
$WORLDVIEW
 70
    1
  9
$SHADEDGE
 70
    3
  9
$SHADEDIF
 70
   70
  9
$TILEMODE
 70
    1
  9
$MAXACTVP
 70
   64
  9
$PINSBASE
 10
2.898890991689592
 20
8.960182712668296
 30
0
  9
$PLIMCHECK
 70
    0
  9
$PEXTMIN
 10
0
 20
0
 30
0
  9
$PEXTMAX
 10
0
 20
0
 30
0
  9
$GRIDMODE
 70
    1
  9
$SNAPSTYLE
 70
    0
  9
$GRIDUNIT
 10
0
 20
0
  9
$PLIMMIN
 10
0
 20
0
  9
$PLIMMAX
 10
21
 20
29.7
  9
$UNITMODE
 70
    0
  9
$VISRETAIN
 70
    1
  9
$PLINEGEN
 70
    0
  9
$PSLTSCALE
 70
    1
  9
$TREEDEPTH
 70
 3020
  9
$CMLSTYLE
  2
Standard
  9
$CMLJUST
 70
    0
  9
$CMLSCALE
 40
20
  9
$PROXYGRAPHICS
 70
    1
  9
$MEASUREMENT
 70
    1
  9
$CELWEIGHT
370
   -1
  9
$ENDCAPS
280
    0
  9
$JOINSTYLE
280
    0
  9
$LWDISPLAY
290
    0
  9
$INSUNITS
 70
    5
  9
$HYPERLINKBASE
  1

  9
$STYLESHEET
  1

  9
$XEDIT
290
    1
  9
$CEPSNTYPE
380
    0
  9
$PSTYLEMODE
290
    1
  9
$EXTNAMES
290
    1
  9
$PSVPSCALE
 40
0.05995958723820145
  9
$OLESTARTUP
290
    0
  9
$SORTENTS
280
  127
  9
$INDEXCTL
280
    0
  9
$HIDETEXT
280
    1
  9
$XCLIPFRAME
290
    0
  9
$HALOGAP
280
    0
  9
$OBSCOLOR
 70
  257
  9
$OBSLTYPE
280
    0
  9
$INTERSECTIONDISPLAY
280
    0
  9
$INTERSECTIONCOLOR
 70
  257
  9
$DIMASSOC
280
    1
  9
$PROJECTNAME
  1

  9
$CAMERADISPLAY
290
    0
  9
$LENSLENGTH
 40
50
  9
$CAMERAHEIGHT
 40
0
  9
$STEPSPERSEC
 40
2
  9
$STEPSIZE
 40
50
  9
$3DDWFPREC
 40
2
  9
$PSOLWIDTH
 40
5
  9
$PSOLHEIGHT
 40
80
  9
$LOFTANG1
 40
1.570796326794897
  9
$LOFTANG2
 40
1.570796326794897
  9
$LOFTMAG1
 40
0
  9
$LOFTMAG2
 40
0
  9
$LOFTPARAM
 70
    7
  9
$LOFTNORMALS
280
    1
  9
$LATITUDE
 40
1
  9
$LONGITUDE
 40
1
  9
$NORTHDIRECTION
 40
0
  9
$TIMEZONE
 70
-8000
  9
$LIGHTGLYPHDISPLAY
280
    1
  9
$TILEMODELIGHTSYNCH
280
    1
  9
$SOLIDHIST
280
    1
  9
$SHOWHIST
280
    1
  9
$DWFFRAME
280
    2
  9
$DGNFRAME
280
    0
  9
$REALWORLDSCALE
290
    1
  9
$INTERFERECOLOR
 62
    1
  9
$CSHADOW
280
    0
  9
$SHADOWPLANELOCATION
 40
0
  0
ENDSEC
  0
SECTION
  2
CLASSES
  0
ENDSEC
  0
SECTION
  2
TABLES
  0
TABLE
  2
VPORT
  5
8
330
0
100
AcDbSymbolTable
 70
    1
  0
VPORT
  5
31
330
2
100
AcDbSymbolTableRecord
100
AcDbViewportTableRecord
  2
*ACTIVE
 70
    0
 10
0
 20
0
 11
1
 21
1
 12
208.5389913319022
 22
113.5481027692648
 13
0
 23
0
 14
10
 24
10
 15
10
 25
10
 16
0
 26
0
 36
1
 17
0
 27
0
 37
0
 40
311.6142108360407
 41
1.871462264150943
 42
50
 43
0
 44
0
 50
0
 51
0
 71
    0
 72
  100
 73
    1
 74
    3
 75
    0
 76
    1
 77
    0
 78
    0
281
    0
 65
    1
110
0
120
0
130
0
111
1
121
0
131
0
112
0
122
1
132
0
 79
    0
146
0
348
10020
 60
    7
 61
    5
292
1
282
    1
141
0
142
0
 63
  250
421
3358443
  0
ENDTAB
  0
TABLE
  2
LTYPE
  5
5
330
0
100
AcDbSymbolTable
 70
    4
  0
LTYPE
  5
14
330
5
100
AcDbSymbolTableRecord
100
AcDbLinetypeTableRecord
  2
ByBlock
 70
    0
  3

 72
   65
 73
    0
 40
0
  0
LTYPE
  5
15
330
5
100
AcDbSymbolTableRecord
100
AcDbLinetypeTableRecord
  2
ByLayer
 70
    0
  3

 72
   65
 73
    0
 40
0
  0
LTYPE
  5
16
330
5
100
AcDbSymbolTableRecord
100
AcDbLinetypeTableRecord
  2
Continuous
 70
    0
  3
Solid line
 72
   65
 73
    0
 40
0
  0
LTYPE
  5
32
330
5
100
AcDbSymbolTableRecord
100
AcDbLinetypeTableRecord
  2
DOT
 70
    0
  3
Dot . . . . . . . . . . . . . . . . . . . . . .
 72
   65
 73
    2
 40
6.35
 49
0
 74
    0
 49
-6.35
 74
    0
  0
LTYPE
  5
33
330
5
100
AcDbSymbolTableRecord
100
AcDbLinetypeTableRecord
  2
DOTTINY
 70
    0
  3
Dot (.15x) .....................................
 72
   65
 73
    2
 40
0.9525
 49
0
 74
    0
 49
-0.9525
 74
    0
  0
LTYPE
  5
34
330
5
100
AcDbSymbolTableRecord
100
AcDbLinetypeTableRecord
  2
DOT2
 70
    0
  3
Dot (.5x) .....................................
 72
   65
 73
    2
 40
3.175
 49
0
 74
    0
 49
-3.175
 74
    0
  0
LTYPE
  5
35
330
5
100
AcDbSymbolTableRecord
100
AcDbLinetypeTableRecord
  2
DOTX2
 70
    0
  3
Dot (2x) .  .  .  .  .  .  .  .  .  .  .  .  .
 72
   65
 73
    2
 40
12.7
 49
0
 74
    0
 49
-12.7
 74
    0
  0
LTYPE
  5
36
330
5
100
AcDbSymbolTableRecord
100
AcDbLinetypeTableRecord
  2
DASHED
 70
    0
  3
Dashed _ _ _ _ _ _ _ _ _ _ _ _ _ _ _ _ _
 72
   65
 73
    2
 40
19.05
 49
12.7
 74
    0
 49
-6.35
 74
    0
  0
LTYPE
  5
37
330
5
100
AcDbSymbolTableRecord
100
AcDbLinetypeTableRecord
  2
DASHEDTINY
 70
    0
  3
Dashed (.15x) _ _ _ _ _ _ _ _ _ _ _ _ _ _ _ _ _
 72
   65
 73
    2
 40
2.8575
 49
1.905
 74
    0
 49
-0.9525
 74
    0
  0
LTYPE
  5
38
330
5
100
AcDbSymbolTableRecord
100
AcDbLinetypeTableRecord
  2
DASHED2
 70
    0
  3
Dashed (.5x) _ _ _ _ _ _ _ _ _ _ _ _ _ _ _ _ _
 72
   65
 73
    2
 40
9.524999999999999
 49
6.35
 74
    0
 49
-3.175
 74
    0
  0
LTYPE
  5
39
330
5
100
AcDbSymbolTableRecord
100
AcDbLinetypeTableRecord
  2
DASHEDX2
 70
    0
  3
Dashed (2x) ____  ____  ____  ____  ____  ___
 72
   65
 73
    2
 40
38.09999999999999
 49
25.4
 74
    0
 49
-12.7
 74
    0
  0
LTYPE
  5
3A
330
5
100
AcDbSymbolTableRecord
100
AcDbLinetypeTableRecord
  2
DASHDOT
 70
    0
  3
Dash dot __ . __ . __ . __ . __ . __ . __ . __
 72
   65
 73
    4
 40
25.4
 49
12.7
 74
    0
 49
-6.35
 74
    0
 49
0
 74
    0
 49
-6.35
 74
    0
  0
LTYPE
  5
3B
330
5
100
AcDbSymbolTableRecord
100
AcDbLinetypeTableRecord
  2
DASHDOTTINY
 70
    0
  3
Dash dot (.15x) _._._._._._._._._._._._._._._.
 72
   65
 73
    4
 40
3.81
 49
1.905
 74
    0
 49
-0.9525
 74
    0
 49
0
 74
    0
 49
-0.9525
 74
    0
  0
LTYPE
  5
3C
330
5
100
AcDbSymbolTableRecord
100
AcDbLinetypeTableRecord
  2
DASHDOT2
 70
    0
  3
Dash dot (.5x) _._._._._._._._._._._._._._._.
 72
   65
 73
    4
 40
12.7
 49
6.35
 74
    0
 49
-3.175
 74
    0
 49
0
 74
    0
 49
-3.175
 74
    0
  0
LTYPE
  5
3D
330
5
100
AcDbSymbolTableRecord
100
AcDbLinetypeTableRecord
  2
DASHDOTX2
 70
    0
  3
Dash dot (2x) ____  .  ____  .  ____  .  ___
 72
   65
 73
    4
 40
50.8
 49
25.4
 74
    0
 49
-12.7
 74
    0
 49
0
 74
    0
 49
-12.7
 74
    0
  0
LTYPE
  5
3E
330
5
100
AcDbSymbolTableRecord
100
AcDbLinetypeTableRecord
  2
DIVIDE
 70
    0
  3
Divide ____ . . ____ . . ____ . . ____ . . ____
 72
   65
 73
    6
 40
31.75
 49
12.7
 74
    0
 49
-6.35
 74
    0
 49
0
 74
    0
 49
-6.35
 74
    0
 49
0
 74
    0
 49
-6.35
 74
    0
  0
LTYPE
  5
3F
330
5
100
AcDbSymbolTableRecord
100
AcDbLinetypeTableRecord
  2
DIVIDETINY
 70
    0
  3
Divide (.15x) __..__..__..__..__..__..__..__.._
 72
   65
 73
    6
 40
4.7625
 49
1.905
 74
    0
 49
-0.9525
 74
    0
 49
0
 74
    0
 49
-0.9525
 74
    0
 49
0
 74
    0
 49
-0.9525
 74
    0
  0
LTYPE
  5
40
330
5
100
AcDbSymbolTableRecord
100
AcDbLinetypeTableRecord
  2
DIVIDE2
 70
    0
  3
Divide (.5x) __..__..__..__..__..__..__..__.._
 72
   65
 73
    6
 40
15.875
 49
6.35
 74
    0
 49
-3.175
 74
    0
 49
0
 74
    0
 49
-3.175
 74
    0
 49
0
 74
    0
 49
-3.175
 74
    0
  0
LTYPE
  5
41
330
5
100
AcDbSymbolTableRecord
100
AcDbLinetypeTableRecord
  2
DIVIDEX2
 70
    0
  3
Divide (2x) ________  .  .  ________  .  .  _
 72
   65
 73
    6
 40
63.5
 49
25.4
 74
    0
 49
-12.7
 74
    0
 49
0
 74
    0
 49
-12.7
 74
    0
 49
0
 74
    0
 49
-12.7
 74
    0
  0
LTYPE
  5
42
330
5
100
AcDbSymbolTableRecord
100
AcDbLinetypeTableRecord
  2
BORDER
 70
    0
  3
Border __ __ . __ __ . __ __ . __ __ . __ __ .
 72
   65
 73
    6
 40
44.45
 49
12.7
 74
    0
 49
-6.35
 74
    0
 49
12.7
 74
    0
 49
-6.35
 74
    0
 49
0
 74
    0
 49
-6.35
 74
    0
  0
LTYPE
  5
43
330
5
100
AcDbSymbolTableRecord
100
AcDbLinetypeTableRecord
  2
BORDERTINY
 70
    0
  3
Border (.15x) __.__.__.__.__.__.__.__.__.__.__.
 72
   65
 73
    6
 40
6.6675
 49
1.905
 74
    0
 49
-0.9525
 74
    0
 49
1.905
 74
    0
 49
-0.9525
 74
    0
 49
0
 74
    0
 49
-0.9525
 74
    0
  0
LTYPE
  5
44
330
5
100
AcDbSymbolTableRecord
100
AcDbLinetypeTableRecord
  2
BORDER2
 70
    0
  3
Border (.5x) __.__.__.__.__.__.__.__.__.__.__.
 72
   65
 73
    6
 40
22.225
 49
6.35
 74
    0
 49
-3.175
 74
    0
 49
6.35
 74
    0
 49
-3.175
 74
    0
 49
0
 74
    0
 49
-3.175
 74
    0
  0
LTYPE
  5
45
330
5
100
AcDbSymbolTableRecord
100
AcDbLinetypeTableRecord
  2
BORDERX2
 70
    0
  3
Border (2x) ____  ____  .  ____  ____  .  ___
 72
   65
 73
    6
 40
88.89999999999999
 49
25.4
 74
    0
 49
-12.7
 74
    0
 49
25.4
 74
    0
 49
-12.7
 74
    0
 49
0
 74
    0
 49
-12.7
 74
    0
  0
LTYPE
  5
46
330
5
100
AcDbSymbolTableRecord
100
AcDbLinetypeTableRecord
  2
CENTER
 70
    0
  3
Center ____ _ ____ _ ____ _ ____ _ ____ _ ____
 72
   65
 73
    4
 40
50.8
 49
31.75
 74
    0
 49
-6.35
 74
    0
 49
6.35
 74
    0
 49
-6.35
 74
    0
  0
LTYPE
  5
47
330
5
100
AcDbSymbolTableRecord
100
AcDbLinetypeTableRecord
  2
CENTERTINY
 70
    0
  3
Center (.15x) ___ _ ___ _ ___ _ ___ _ ___ _ ___
 72
   65
 73
    4
 40
7.62
 49
4.7625
 74
    0
 49
-0.9525
 74
    0
 49
0.9525
 74
    0
 49
-0.9525
 74
    0
  0
LTYPE
  5
48
330
5
100
AcDbSymbolTableRecord
100
AcDbLinetypeTableRecord
  2
CENTER2
 70
    0
  3
Center (.5x) ___ _ ___ _ ___ _ ___ _ ___ _ ___
 72
   65
 73
    4
 40
28.575
 49
19.05
 74
    0
 49
-3.175
 74
    0
 49
3.175
 74
    0
 49
-3.175
 74
    0
  0
LTYPE
  5
49
330
5
100
AcDbSymbolTableRecord
100
AcDbLinetypeTableRecord
  2
CENTERX2
 70
    0
  3
Center (2x) ________  __  ________  __  _____
 72
   65
 73
    4
 40
101.6
 49
63.5
 74
    0
 49
-12.7
 74
    0
 49
12.7
 74
    0
 49
-12.7
 74
    0
  0
ENDTAB
  0
TABLE
  2
LAYER
  5
2
330
0
100
AcDbSymbolTable
 70
    1
  0
LAYER
  5
10
330
2
100
AcDbSymbolTableRecord
100
AcDbLayerTableRecord
  2
0
 70
    0
 62
    7
  6
CONTINUOUS
370
    0
390
F
  0
ENDTAB
  0
TABLE
  2
STYLE
  5
3
330
0
100
AcDbSymbolTable
 70
    3
  0
STYLE
  5
4A
330
2
100
AcDbSymbolTableRecord
100
AcDbTextStyleTableRecord
  2
unicode
 70
    0
 40
0
 41
1
 50
0
 71
    0
 42
1
  3
unicode
  4

  0
STYLE
  5
4B
330
2
100
AcDbSymbolTableRecord
100
AcDbTextStyleTableRecord
  2
Standard
 70
    0
 40
0
 41
1
 50
0
 71
    0
 42
1
  3
txt
  4

  0
ENDTAB
  0
TABLE
  2
VIEW
  5
6
330
0
100
AcDbSymbolTable
 70
    0
  0
ENDTAB
  0
TABLE
  2
UCS
  5
7
330
0
100
AcDbSymbolTable
 70
    0
  0
ENDTAB
  0
TABLE
  2
APPID
  5
9
330
0
100
AcDbSymbolTable
 70
    1
  0
APPID
  5
12
330
9
100
AcDbSymbolTableRecord
100
AcDbRegAppTableRecord
  2
ACAD
 70
    0
  0
APPID
  5
4C
330
9
100
AcDbSymbolTableRecord
100
AcDbRegAppTableRecord
  2
LibreCad
 70
    0
  0
ENDTAB
  0
TABLE
  2
DIMSTYLE
  5
A
330
0
100
AcDbSymbolTable
 70
    1
100
AcDbDimStyleTable
 71
    1
  0
DIMSTYLE
105
4D
330
A
100
AcDbSymbolTableRecord
100
AcDbDimStyleTableRecord
  2
Standard
 70
    0
 40
2.5
 41
2.5
 42
0.0625
 43
0.38
 44
0.125
 45
0
 46
0
 47
0
 48
0
 49
1
140
2
141
0.09
142
0
143
25.4
144
1
145
0
146
1
147
1
148
0
 71
    0
 72
    0
 73
    0
 74
    1
 75
    0
 76
    0
 77
    0
 78
    8
 79
    0
170
    0
171
    2
172
    0
173
    0
174
    0
175
    0
176
    0
177
    0
178
    0
179
    0
271
    1
272
    4
273
    2
274
    2
275
    0
276
    0
277
    2
278
    0
279
    0
280
    0
281
    0
282
    0
283
    1
284
    0
285
    0
286
    0
288
    0
289
    3
340
standard
341

371
   -2
372
   -2
  0
ENDTAB
  0
TABLE
  2
BLOCK_RECORD
  5
1
330
0
100
AcDbSymbolTable
 70
    2
  0
BLOCK_RECORD
  5
1F
330
1
100
AcDbSymbolTableRecord
100
AcDbBlockTableRecord
  2
*Model_Space
 70
    0
280
    1
281
    0
  0
BLOCK_RECORD
  5
1E
330
1
100
AcDbSymbolTableRecord
100
AcDbBlockTableRecord
  2
*Paper_Space
 70
    0
280
    1
281
    0
  0
BLOCK_RECORD
  5
4E
330
1
100
AcDbSymbolTableRecord
100
AcDbBlockTableRecord
  2
*D9
 70
    0
280
    1
281
    0
  0
BLOCK_RECORD
  5
51
330
1
100
AcDbSymbolTableRecord
100
AcDbBlockTableRecord
  2
*D4
 70
    0
280
    1
281
    0
  0
BLOCK_RECORD
  5
54
330
1
100
AcDbSymbolTableRecord
100
AcDbBlockTableRecord
  2
*D7
 70
    0
280
    1
281
    0
  0
BLOCK_RECORD
  5
57
330
1
100
AcDbSymbolTableRecord
100
AcDbBlockTableRecord
  2
*D5
 70
    0
280
    1
281
    0
  0
BLOCK_RECORD
  5
5A
330
1
100
AcDbSymbolTableRecord
100
AcDbBlockTableRecord
  2
*D8
 70
    0
280
    1
281
    0
  0
BLOCK_RECORD
  5
5D
330
1
100
AcDbSymbolTableRecord
100
AcDbBlockTableRecord
  2
*D12
 70
    0
280
    1
281
    0
  0
BLOCK_RECORD
  5
60
330
1
100
AcDbSymbolTableRecord
100
AcDbBlockTableRecord
  2
*D3
 70
    0
280
    1
281
    0
  0
BLOCK_RECORD
  5
63
330
1
100
AcDbSymbolTableRecord
100
AcDbBlockTableRecord
  2
*D2
 70
    0
280
    1
281
    0
  0
BLOCK_RECORD
  5
66
330
1
100
AcDbSymbolTableRecord
100
AcDbBlockTableRecord
  2
*D10
 70
    0
280
    1
281
    0
  0
BLOCK_RECORD
  5
69
330
1
100
AcDbSymbolTableRecord
100
AcDbBlockTableRecord
  2
*D1
 70
    0
280
    1
281
    0
  0
BLOCK_RECORD
  5
6C
330
1
100
AcDbSymbolTableRecord
100
AcDbBlockTableRecord
  2
*D6
 70
    0
280
    1
281
    0
  0
BLOCK_RECORD
  5
6F
330
1
100
AcDbSymbolTableRecord
100
AcDbBlockTableRecord
  2
*D11
 70
    0
280
    1
281
    0
  0
BLOCK_RECORD
  5
72
330
1
100
AcDbSymbolTableRecord
100
AcDbBlockTableRecord
  2
Legends
 70
    0
280
    1
281
    0
  0
BLOCK_RECORD
  5
75
330
1
100
AcDbSymbolTableRecord
100
AcDbBlockTableRecord
  2
Legend
 70
    0
280
    1
281
    0
  0
ENDTAB
  0
ENDSEC
  0
SECTION
  2
BLOCKS
  0
BLOCK
  5
20
330
1F
100
AcDbEntity
  8
0
100
AcDbBlockBegin
  2
*Model_Space
 70
    0
 10
0
 20
0
 30
0
  3
*Model_Space
  1

  0
ENDBLK
  5
21
330
1F
100
AcDbEntity
  8
0
100
AcDbBlockEnd
  0
BLOCK
  5
1C
330
1B
100
AcDbEntity
  8
0
100
AcDbBlockBegin
  2
*Paper_Space
 70
    0
 10
0
 20
0
 30
0
  3
*Paper_Space
  1

  0
ENDBLK
  5
1D
330
1F
100
AcDbEntity
  8
0
100
AcDbBlockEnd
  0
BLOCK
  5
4F
330
4E
100
AcDbEntity
  8
0
100
AcDbBlockBegin
  2
*D9
 70
    1
 10
0
 20
0
  3
*D9
  1

  0
LINE
  5
78
100
AcDbEntity
  8
0
  6
ByBlock
 62
    0
370
   -2
100
AcDbLine
 10
169.8920192435104
 20
177.6971149358338
 11
185.2750205442785
 21
170.4199507130578
  0
LINE
  5
79
100
AcDbEntity
  8
0
  6
ByBlock
 62
    0
370
   -2
100
AcDbLine
 10
163.4760573597232
 20
164.1345860464791
 11
178.8590586604913
 21
156.8574218237031
  0
LINE
  5
7A
100
AcDbEntity
  8
0
  6
ByBlock
 62
    0
370
   -2
100
AcDbLine
 10
190.3379018005821
 20
181.8530119669202
 11
173.2312060501613
 21
145.6916289165065
  0
SOLID
  5
7B
100
AcDbEntity
  8
0
  6
ByBlock
 62
    0
370
   -2
100
AcDbTrace
 10
184.9925348672653
 20
170.5535848863907
 30
0
 11
186.7244627068742
 21
176.6483372755567
 31
0
 12
188.6059739609732
 22
175.7582595777543
 32
0
 13
188.6059739609732
 23
175.7582595777543
 33
0
  0
SOLID
  5
7C
100
AcDbEntity
  8
0
  6
ByBlock
 62
    0
370
   -2
100
AcDbTrace
 10
178.5765729834781
 20
156.991055997036
 30
0
 11
176.8446451438692
 21
150.8963036078701
 31
0
 12
174.9631338897703
 22
151.7863813056725
 32
0
 13
174.9631338897703
 23
151.7863813056725
 33
0
  0
MTEXT
  5
7D
100
AcDbEntity
  8
0
  6
CONTINUOUS
 62
    0
370
   -2
100
AcDbMText
 10
177.2647830931599
 20
165.9104672150401
 30
0
 40
5
 41
5.000000000000311
 71
    5
 72
    1
  1
15
  7
standard
210
0
220
0
230
1
 50
64.68279315441208
 73
    2
 44
1
  0
ENDBLK
  5
50
330
4E
100
AcDbEntity
  8
0
100
AcDbBlockEnd
  0
BLOCK
  5
52
330
51
100
AcDbEntity
  8
0
100
AcDbBlockBegin
  2
*D4
 70
    1
 10
0
 20
0
  3
*D4
  1

  0
LINE
  5
7E
100
AcDbEntity
  8
0
  6
ByBlock
 62
    0
370
   -2
100
AcDbLine
 10
110
 20
180.15625
 11
110
 21
188.9086569765708
  0
LINE
  5
7F
100
AcDbEntity
  8
0
  6
ByBlock
 62
    0
370
   -2
100
AcDbLine
 10
160
 20
180.15625
 11
160
 21
188.9086569765708
  0
LINE
  5
80
100
AcDbEntity
  8
0
  6
ByBlock
 62
    0
370
   -2
100
AcDbLine
 10
110
 20
188.5961569765708
 11
160
 21
188.5961569765708
  0
SOLID
  5
81
100
AcDbEntity
  8
0
  6
ByBlock
 62
    0
370
   -2
100
AcDbTrace
 10
110
 20
188.5961569765708
 30
0
 11
116.25
 21
189.6368686210029
 31
0
 12
116.25
 22
187.5554453321387
 32
0
 13
116.25
 23
187.5554453321387
 33
0
  0
SOLID
  5
82
100
AcDbEntity
  8
0
  6
ByBlock
 62
    0
370
   -2
100
AcDbTrace
 10
160
 20
188.5961569765708
 30
0
 11
153.75
 21
187.5554453321387
 31
0
 12
153.75
 22
189.6368686210029
 32
0
 13
153.75
 23
189.6368686210029
 33
0
  0
MTEXT
  5
83
100
AcDbEntity
  8
0
  6
CONTINUOUS
 62
    0
370
   -2
100
AcDbMText
 10
135
 20
193.5961569765708
 30
0
 40
5
 41
6.111111111111422
 71
    5
 72
    1
  1
50
  7
standard
210
0
220
0
230
1
 50
0
 73
    2
 44
1
  0
ENDBLK
  5
53
330
51
100
AcDbEntity
  8
0
100
AcDbBlockEnd
  0
BLOCK
  5
55
330
54
100
AcDbEntity
  8
0
100
AcDbBlockBegin
  2
*D7
 70
    1
 10
0
 20
0
  3
*D7
  1

  0
LINE
  5
84
100
AcDbEntity
  8
0
  6
ByBlock
 62
    0
370
   -2
100
AcDbLine
 10
250.15625
 20
120
 11
260.1666507964338
 21
120
  0
LINE
  5
85
100
AcDbEntity
  8
0
  6
ByBlock
 62
    0
370
   -2
100
AcDbLine
 10
250.15625
 20
80
 11
260.1666507964338
 21
80
  0
LINE
  5
86
100
AcDbEntity
  8
0
  6
ByBlock
 62
    0
370
   -2
100
AcDbLine
 10
259.8541507964338
 20
120
 11
259.8541507964338
 21
80
  0
SOLID
  5
87
100
AcDbEntity
  8
0
  6
ByBlock
 62
    0
370
   -2
100
AcDbTrace
 10
259.8541507964338
 20
120
 30
0
 11
260.8948624408659
 21
113.75
 31
0
 12
258.8134391520017
 22
113.75
 32
0
 13
258.8134391520017
 23
113.75
 33
0
  0
SOLID
  5
88
100
AcDbEntity
  8
0
  6
ByBlock
 62
    0
370
   -2
100
AcDbTrace
 10
259.8541507964338
 20
80
 30
0
 11
258.8134391520017
 21
86.25
 31
0
 12
260.8948624408659
 22
86.25
 32
0
 13
260.8948624408659
 23
86.25
 33
0
  0
MTEXT
  5
89
100
AcDbEntity
  8
0
  6
CONTINUOUS
 62
    0
370
   -2
100
AcDbMText
 10
254.8541507964338
 20
100
 30
0
 40
5
 41
6.666666666666667
 71
    5
 72
    1
  1
40
  7
standard
210
0
220
0
230
1
 50
90
 73
    2
 44
1
  0
ENDBLK
  5
56
330
54
100
AcDbEntity
  8
0
100
AcDbBlockEnd
  0
BLOCK
  5
58
330
57
100
AcDbEntity
  8
0
100
AcDbBlockBegin
  2
*D5
 70
    1
 10
0
 20
0
  3
*D5
  1

  0
LINE
  5
8A
100
AcDbEntity
  8
0
  6
ByBlock
 62
    0
370
   -2
100
AcDbLine
 10
19.93012287570313
 20
137.7790744735958
 11
6.915973841407117
 21
163.8073725421879
  0
LINE
  5
8B
100
AcDbEntity
  8
0
  6
ByBlock
 62
    0
370
   -2
100
AcDbLine
 10
104.6514824256989
 20
180.1397542485937
 11
91.63733339140292
 21
206.1680523171858
  0
LINE
  5
8C
100
AcDbEntity
  8
0
  6
ByBlock
 62
    0
370
   -2
100
AcDbLine
 10
7.055728090000853
 20
163.5278640450004
 11
91.77708763999665
 21
205.8885438199983
  0
SOLID
  5
8D
100
AcDbEntity
  8
0
  6
ByBlock
 62
    0
370
   -2
100
AcDbTrace
 10
7.055728090000853
 20
163.5278640450004
 30
0
 11
12.18047763736518
 21
167.2537898096454
 31
0
 12
13.11131843013548
 22
165.3921082241048
 32
0
 13
13.11131843013548
 23
165.3921082241048
 33
0
  0
SOLID
  5
8E
100
AcDbEntity
  8
0
  6
ByBlock
 62
    0
370
   -2
100
AcDbTrace
 10
91.77708763999665
 20
205.8885438199983
 30
0
 11
86.65233809263233
 21
202.1626180553532
 31
0
 12
85.72149729986202
 22
204.0242996408939
 32
0
 13
85.72149729986202
 23
204.0242996408939
 33
0
  0
MTEXT
  5
8F
100
AcDbEntity
  8
0
  6
CONTINUOUS
 62
    0
370
   -2
100
AcDbMText
 10
47.18033988749896
 20
189.1803398874989
 30
0
 40
5
 41
12.22222222222253
 71
    5
 72
    1
  1
94.7
  7
standard
210
0
220
0
230
1
 50
26.56505117707799
 73
    2
 44
1
  0
ENDBLK
  5
59
330
57
100
AcDbEntity
  8
0
100
AcDbBlockEnd
  0
BLOCK
  5
5B
330
5A
100
AcDbEntity
  8
0
100
AcDbBlockBegin
  2
*D8
 70
    1
 10
0
 20
0
  3
*D8
  1

  0
LINE
  5
90
100
AcDbEntity
  8
0
  6
ByBlock
 62
    0
370
   -2
100
AcDbLine
 10
250.15625
 20
137.6393202250021
 11
280.3125
 21
137.6393202250021
  0
LINE
  5
91
100
AcDbEntity
  8
0
  6
ByBlock
 62
    0
370
   -2
100
AcDbLine
 10
250.15625
 20
62.36067977499786
 11
280.3125
 21
62.36067977499786
  0
LINE
  5
92
100
AcDbEntity
  8
0
  6
ByBlock
 62
    0
370
   -2
100
AcDbLine
 10
280
 20
137.6393202250021
 11
280
 21
62.36067977499786
  0
SOLID
  5
93
100
AcDbEntity
  8
0
  6
ByBlock
 62
    0
370
   -2
100
AcDbTrace
 10
280
 20
137.6393202250021
 30
0
 11
281.0407116444321
 21
131.3893202250021
 31
0
 12
278.9592883555679
 22
131.3893202250021
 32
0
 13
278.9592883555679
 23
131.3893202250021
 33
0
  0
SOLID
  5
94
100
AcDbEntity
  8
0
  6
ByBlock
 62
    0
370
   -2
100
AcDbTrace
 10
280
 20
62.36067977499786
 30
0
 11
278.9592883555679
 21
68.61067977499786
 31
0
 12
281.0407116444321
 22
68.61067977499786
 32
0
 13
281.0407116444321
 23
68.61067977499786
 33
0
  0
MTEXT
  5
95
100
AcDbEntity
  8
0
  6
CONTINUOUS
 62
    0
370
   -2
100
AcDbMText
 10
275
 20
99.99999999999999
 30
0
 40
5
 41
11.66666666666729
 71
    5
 72
    1
  1
75.3
  7
standard
210
0
220
0
230
1
 50
90
 73
    2
 44
1
  0
ENDBLK
  5
5C
330
5A
100
AcDbEntity
  8
0
100
AcDbBlockEnd
  0
BLOCK
  5
5E
330
5D
100
AcDbEntity
  8
0
100
AcDbBlockBegin
  2
*D12
 70
    1
 10
0
 20
0
  3
*D12
  1

  0
LINE
  5
96
100
AcDbEntity
  8
0
  6
ByBlock
 62
    0
370
   -2
100
AcDbLine
 10
258.8045176614052
 20
155.5977411692973
 11
217.7878788952258
 21
176.1060605523866
  0
LINE
  5
97
100
AcDbEntity
  8
0
  6
ByBlock
 62
    0
370
   -2
100
AcDbLine
 10
249.8602457514063
 20
137.709197349299
 11
208.8436069852268
 21
158.2175167323883
  0
LINE
  5
98
100
AcDbEntity
  8
0
  6
ByBlock
 62
    0
370
   -2
100
AcDbLine
 10
218.0673873924133
 20
175.9663063037929
 11
209.1231154824143
 21
158.0777624837946
  0
SOLID
  5
99
100
AcDbEntity
  8
0
  6
ByBlock
 62
    0
370
   -2
100
AcDbTrace
 10
218.0673873924133
 20
175.9663063037929
 30
0
 11
216.2031432133089
 21
169.9107159636582
 31
0
 12
214.3414616277683
 22
170.8415567564285
 32
0
 13
214.3414616277683
 23
170.8415567564285
 33
0
  0
SOLID
  5
9A
100
AcDbEntity
  8
0
  6
ByBlock
 62
    0
370
   -2
100
AcDbTrace
 10
209.1231154824143
 20
158.0777624837946
 30
0
 11
210.9873596615187
 21
164.1333528239292
 31
0
 12
212.8490412470593
 22
163.2025120311589
 32
0
 13
212.8490412470593
 23
163.2025120311589
 33
0
  0
MTEXT
  5
9B
100
AcDbEntity
  8
0
  6
CONTINUOUS
 62
    0
370
   -2
100
AcDbMText
 10
209.1231154824142
 20
169.2581023712935
 30
0
 40
5
 41
6.111111111111111
 71
    5
 72
    1
  1
20
  7
standard
210
0
220
0
230
1
 50
63.43494882292246
 73
    2
 44
1
  0
ENDBLK
  5
5F
330
5D
100
AcDbEntity
  8
0
100
AcDbBlockEnd
  0
BLOCK
  5
61
330
60
100
AcDbEntity
  8
0
100
AcDbBlockBegin
  2
*D3
 70
    1
 10
0
 20
0
  3
*D3
  1

  0
LINE
  5
9C
100
AcDbEntity
  8
0
  6
ByBlock
 62
    0
370
   -2
100
AcDbLine
 10
19.93012287570313
 20
137.7790744735958
 11
16.18983458775234
 21
145.2596510494975
  0
LINE
  5
9D
100
AcDbEntity
  8
0
  6
ByBlock
 62
    0
370
   -2
100
AcDbLine
 10
100.1793464706993
 20
177.9036862710939
 11
96.43905818274854
 21
185.3842628469956
  0
LINE
  5
9E
100
AcDbEntity
  8
0
  6
ByBlock
 62
    0
370
   -2
100
AcDbLine
 10
16.32958883634608
 20
144.98014255231
 11
96.57881243134227
 21
185.1047543498081
  0
SOLID
  5
9F
100
AcDbEntity
  8
0
  6
ByBlock
 62
    0
370
   -2
100
AcDbTrace
 10
16.32958883634608
 20
144.98014255231
 30
0
 11
21.4543383837104
 21
148.7060683169551
 31
0
 12
22.3851791764807
 22
146.8443867314144
 32
0
 13
22.3851791764807
 23
146.8443867314144
 33
0
  0
SOLID
  5
A0
100
AcDbEntity
  8
0
  6
ByBlock
 62
    0
370
   -2
100
AcDbTrace
 10
96.57881243134227
 20
185.1047543498081
 30
0
 11
91.45406288397795
 21
181.3788285851631
 31
0
 12
90.52322209120764
 22
183.2405101707037
 32
0
 13
90.52322209120764
 23
183.2405101707037
 33
0
  0
MTEXT
  5
A1
100
AcDbEntity
  8
0
  6
CONTINUOUS
 62
    0
370
   -2
100
AcDbMText
 10
54.21813265634438
 20
169.5145844060587
 30
0
 40
5
 41
11.66666666666667
 71
    5
 72
    1
  1
89.7
  7
standard
210
0
220
0
230
1
 50
26.56505117707799
 73
    2
 44
1
  0
ENDBLK
  5
62
330
60
100
AcDbEntity
  8
0
100
AcDbBlockEnd
  0
BLOCK
  5
64
330
63
100
AcDbEntity
  8
0
100
AcDbBlockBegin
  2
*D2
 70
    1
 10
0
 20
0
  3
*D2
  1

  0
LINE
  5
A2
100
AcDbEntity
  8
0
  6
ByBlock
 62
    0
370
   -2
100
AcDbLine
 10
20
 20
137.7955702250021
 11
20
 21
95.11984993543258
  0
LINE
  5
A3
100
AcDbEntity
  8
0
  6
ByBlock
 62
    0
370
   -2
100
AcDbLine
 10
104.8611137985895
 20
19.93012287570311
 11
49.30069254608585
 21
47.71033350195496
  0
ARC
  5
A4
100
AcDbEntity
  8
0
  6
ByBlock
 62
    0
370
   -2
100
AcDbCircle
 10
20
 20
62.36067977499791
 40
32.44667016043468
100
AcDbArc
 50
333.434948822922
 51
90
  0
SOLID
  5
A5
100
AcDbEntity
  8
0
  6
ByBlock
 62
    0
370
   -2
100
AcDbTrace
 10
20
 20
94.80734993543258
 30
0
 11
26.32111297815631
 21
95.24221939198304
 31
0
 12
26.12095695121974
 22
93.17044226296863
 32
0
 13
26.12095695121974
 23
93.17044226296863
 33
0
  0
SOLID
  5
A6
100
AcDbEntity
  8
0
  6
ByBlock
 62
    0
370
   -2
100
AcDbTrace
 10
49.02118404889838
 20
47.85008775054871
 30
0
 11
50.29446448354568
 21
54.05688544836366
 31
0
 12
52.23703077789521
 22
53.30938354235711
 32
0
 13
52.23703077789521
 23
53.30938354235711
 33
0
  0
MTEXT
  5
A7
100
AcDbEntity
  8
0
  6
CONTINUOUS
 62
    0
370
   -2
100
AcDbMText
 10
49.72741322118588
 20
80.73323154330375
 30
0
 40
5
 41
11.11111111111111
 71
    8
 72
    1
  1
117%%D
  7
standard
210
0
220
0
230
1
 50
301.717474411461
 73
    2
 44
1
  0
ENDBLK
  5
65
330
63
100
AcDbEntity
  8
0
100
AcDbBlockEnd
  0
BLOCK
  5
67
330
66
100
AcDbEntity
  8
0
100
AcDbBlockBegin
  2
*D10
 70
    1
 10
0
 20
0
  3
*D10
  1

  0
LINE
  5
A8
100
AcDbEntity
  8
0
  6
ByBlock
 62
    0
370
   -2
100
AcDbLine
 10
270
 20
79.84375
 11
270
 21
-20.3125
  0
LINE
  5
A9
100
AcDbEntity
  8
0
  6
ByBlock
 62
    0
370
   -2
100
AcDbLine
 10
-2.870171141771197e-017
 20
79.84375
 11
-1.842649873017108e-014
 21
-20.3125
  0
LINE
  5
AA
100
AcDbEntity
  8
0
  6
ByBlock
 62
    0
370
   -2
100
AcDbLine
 10
270
 20
-20
 11
-1.836909530733566e-014
 21
-20
  0
SOLID
  5
AB
100
AcDbEntity
  8
0
  6
ByBlock
 62
    0
370
   -2
100
AcDbTrace
 10
270
 20
-20
 30
0
 11
263.75
 21
-21.0407116444321
 31
0
 12
263.75
 22
-18.9592883555679
 32
0
 13
263.75
 23
-18.9592883555679
 33
0
  0
SOLID
  5
AC
100
AcDbEntity
  8
0
  6
ByBlock
 62
    0
370
   -2
100
AcDbTrace
 10
-1.836909530733566e-014
 20
-20
 30
0
 11
6.249999999999982
 21
-18.9592883555679
 31
0
 12
6.249999999999981
 22
-21.0407116444321
 32
0
 13
6.249999999999981
 23
-21.0407116444321
 33
0
  0
MTEXT
  5
AD
100
AcDbEntity
  8
0
  6
CONTINUOUS
 62
    0
370
   -2
100
AcDbMText
 10
135
 20
-15
 30
0
 40
5
 41
10
 71
    5
 72
    1
  1
270
  7
standard
210
0
220
0
230
1
 50
360
 73
    2
 44
1
  0
ENDBLK
  5
68
330
66
100
AcDbEntity
  8
0
100
AcDbBlockEnd
  0
BLOCK
  5
6A
330
69
100
AcDbEntity
  8
0
100
AcDbBlockBegin
  2
*D1
 70
    1
 10
0
 20
0
  3
*D1
  1

  0
LINE
  5
AE
100
AcDbEntity
  8
0
  6
ByBlock
 62
    0
370
   -2
100
AcDbLine
 10
104.5651095499958
 20
20.00000000000001
 11
134.505279579037
 21
20
  0
LINE
  5
AF
100
AcDbEntity
  8
0
  6
ByBlock
 62
    0
370
   -2
100
AcDbLine
 10
250.1397542485937
 20
62.43055689929475
 11
192.8031711714501
 21
33.76226536072295
  0
ARC
  5
B0
100
AcDbEntity
  8
0
  6
ByBlock
 62
    0
370
   -2
100
AcDbCircle
 10
165.2786404500042
 20
20
 40
30.4608608709672
100
AcDbArc
 50
26.56505117707798
 51
180
  0
SOLID
  5
B1
100
AcDbEntity
  8
0
  6
ByBlock
 62
    0
370
   -2
100
AcDbTrace
 10
134.817779579037
 20
20
 30
0
 11
134.4226073101354
 21
26.32371881132833
 31
0
 12
136.4930868740083
 22
26.11055858283615
 32
0
 13
136.4930868740083
 23
26.11055858283615
 33
0
  0
SOLID
  5
B2
100
AcDbEntity
  8
0
  6
ByBlock
 62
    0
370
   -2
100
AcDbTrace
 10
192.5236626742626
 20
33.62251111212922
 30
0
 11
188.2924974020165
 21
38.33874066186436
 31
0
 12
190.0490624701525
 22
39.45534357643632
 32
0
 13
190.0490624701525
 23
39.45534357643632
 33
0
  0
MTEXT
  5
B3
100
AcDbEntity
  8
0
  6
CONTINUOUS
 62
    0
370
   -2
100
AcDbMText
 10
157.7057864011442
 20
52.07912453465528
 30
0
 40
5
 41
12.22222222222284
 71
    8
 72
    1
  1
153%%D
  7
standard
210
0
220
0
230
1
 50
373.282525588539
 73
    2
 44
1
  0
ENDBLK
  5
6B
330
69
100
AcDbEntity
  8
0
100
AcDbBlockEnd
  0
BLOCK
  5
6D
330
6C
100
AcDbEntity
  8
0
100
AcDbBlockBegin
  2
*D6
 70
    1
 10
0
 20
0
  3
*D6
  1

  0
LINE
  5
B4
100
AcDbEntity
  8
0
  6
ByBlock
 62
    0
370
   -2
100
AcDbLine
 10
104.7213595499958
 20
180.15625
 11
104.7213595499958
 21
210.3125
  0
LINE
  5
B5
100
AcDbEntity
  8
0
  6
ByBlock
 62
    0
370
   -2
100
AcDbLine
 10
165.2786404500041
 20
180.15625
 11
165.2786404500041
 21
210.3125
  0
LINE
  5
B6
100
AcDbEntity
  8
0
  6
ByBlock
 62
    0
370
   -2
100
AcDbLine
 10
104.7213595499958
 20
210
 11
165.2786404500041
 21
210
  0
SOLID
  5
B7
100
AcDbEntity
  8
0
  6
ByBlock
 62
    0
370
   -2
100
AcDbTrace
 10
104.7213595499958
 20
210
 30
0
 11
110.9713595499958
 21
211.0407116444321
 31
0
 12
110.9713595499958
 22
208.9592883555679
 32
0
 13
110.9713595499958
 23
208.9592883555679
 33
0
  0
SOLID
  5
B8
100
AcDbEntity
  8
0
  6
ByBlock
 62
    0
370
   -2
100
AcDbTrace
 10
165.2786404500041
 20
210
 30
0
 11
159.0286404500041
 21
208.9592883555679
 31
0
 12
159.0286404500041
 22
211.0407116444321
 32
0
 13
159.0286404500041
 23
211.0407116444321
 33
0
  0
MTEXT
  5
B9
100
AcDbEntity
  8
0
  6
CONTINUOUS
 62
    0
370
   -2
100
AcDbMText
 10
134.9999999999999
 20
215
 30
0
 40
5
 41
11.66666666666729
 71
    5
 72
    1
  1
60.6
  7
standard
210
0
220
0
230
1
 50
0
 73
    2
 44
1
  0
ENDBLK
  5
6E
330
6C
100
AcDbEntity
  8
0
100
AcDbBlockEnd
  0
BLOCK
  5
70
330
6F
100
AcDbEntity
  8
0
100
AcDbBlockBegin
  2
*D11
 70
    1
 10
0
 20
0
  3
*D11
  1

  0
LINE
  5
BA
100
AcDbEntity
  8
0
  6
ByBlock
 62
    0
370
   -2
100
AcDbLine
 10
109.84375
 20
1.913447427847464e-017
 11
-20.3125
 21
1.595815154824785e-014
  0
LINE
  5
BB
100
AcDbEntity
  8
0
  6
ByBlock
 62
    0
370
   -2
100
AcDbLine
 10
109.84375
 20
200
 11
-20.3125
 21
200
  0
LINE
  5
BC
100
AcDbEntity
  8
0
  6
ByBlock
 62
    0
370
   -2
100
AcDbLine
 10
-20
 20
1.59198825996909e-014
 11
-20
 21
200
  0
SOLID
  5
BD
100
AcDbEntity
  8
0
  6
ByBlock
 62
    0
370
   -2
100
AcDbTrace
 10
-20
 20
1.59198825996909e-014
 30
0
 11
-21.0407116444321
 21
6.250000000000016
 31
0
 12
-18.9592883555679
 22
6.250000000000016
 32
0
 13
-18.9592883555679
 23
6.250000000000016
 33
0
  0
SOLID
  5
BE
100
AcDbEntity
  8
0
  6
ByBlock
 62
    0
370
   -2
100
AcDbTrace
 10
-20
 20
200
 30
0
 11
-18.9592883555679
 21
193.75
 31
0
 12
-21.0407116444321
 22
193.75
 32
0
 13
-21.0407116444321
 23
193.75
 33
0
  0
MTEXT
  5
BF
100
AcDbEntity
  8
0
  6
CONTINUOUS
 62
    0
370
   -2
100
AcDbMText
 10
-25
 20
100
 30
0
 40
5
 41
10
 71
    5
 72
    1
  1
200
  7
standard
210
0
220
0
230
1
 50
90
 73
    2
 44
1
  0
ENDBLK
  5
71
330
6F
100
AcDbEntity
  8
0
100
AcDbBlockEnd
  0
BLOCK
  5
73
330
72
100
AcDbEntity
  8
0
100
AcDbBlockBegin
  2
Legends
 70
    0
 10
0
 20
0
  3
Legends
  1

  0
MTEXT
  5
C0
100
AcDbEntity
  8
0
  6
ByLayer
 62
  256
370
   -1
100
AcDbMText
 10
-50
 20
0
 30
0
 40
4
 41
14.6698704951131
 71
    1
 72
    1
  1
Cut\PFold\PStitch
  7
unicode
210
0
220
0
230
1
 50
0
 73
    2
 44
1
  0
LINE
  5
C1
100
AcDbEntity
  8
0
  6
ByLayer
 62
  256
370
   -1
100
AcDbLine
 10
-30
 20
-1
 11
-10
 21
-1
  0
LINE
  5
C2
100
AcDbEntity
  8
0
  6
BORDERTINY
 62
  256
370
   -1
100
AcDbLine
 10
-30
 20
-8
 11
-10
 21
-8
  0
LINE
  5
C3
100
AcDbEntity
  8
0
  6
DASHEDTINY
 62
  256
370
   -1
100
AcDbLine
 10
-30
 20
-15
 11
-10
 21
-15
  0
ENDBLK
  5
74
330
72
100
AcDbEntity
  8
0
100
AcDbBlockEnd
  0
BLOCK
  5
76
330
75
100
AcDbEntity
  8
0
100
AcDbBlockBegin
  2
Legend
 70
    0
 10
0
 20
0
  3
Legend
  1

  0
MTEXT
  5
C4
100
AcDbEntity
  8
0
  6
ByLayer
 62
  256
370
   -1
100
AcDbMText
 10
0
 20
0
 30
0
 40
4
 41
9.777777777777779
 71
    1
 72
    1
  1
Cut\PFold\PSew
  7
unicode
210
0
220
0
230
1
 50
0
 73
    2
 44
1
  0
LINE
  5
C5
100
AcDbEntity
  8
0
  6
ByLayer
 62
  256
370
   -1
100
AcDbLine
 10
13
 20
-2
 11
40
 21
-2
  0
LINE
  5
C6
100
AcDbEntity
  8
0
  6
BORDERTINY
 62
  256
370
   -1
100
AcDbLine
 10
13
 20
-8
 11
40
 21
-8
  0
LINE
  5
C7
100
AcDbEntity
  8
0
  6
DASHEDTINY
 62
  256
370
   -1
100
AcDbLine
 10
13
 20
-15
 11
40
 21
-15
  0
ENDBLK
  5
77
330
75
100
AcDbEntity
  8
0
100
AcDbBlockEnd
  0
ENDSEC
  0
SECTION
  2
ENTITIES
  0
LINE
  5
C8
100
AcDbEntity
  8
0
  6
ByLayer
 62
  256
370
   -1
100
AcDbLine
 10
11.0557280900008
 20
155.5278640450004
 11
20.00000000000001
 21
137.6393202250021
  0
LINE
  5
C9
100
AcDbEntity
  8
0
  6
ByLayer
 62
  256
370
   -1
100
AcDbLine
 10
258.9442719099991
 20
155.5278640450004
 11
250
 21
137.6393202250021
  0
LINE
  5
CA
100
AcDbEntity
  8
0
  6
ByLayer
 62
  256
370
   -1
100
AcDbLine
 10
258.9442719099991
 20
44.47213595499955
 11
250
 21
62.36067977499794
  0
LINE
  5
CB
100
AcDbEntity
  8
0
  6
ByLayer
 62
  256
370
   -1
100
AcDbLine
 10
11.05572809000084
 20
44.47213595499959
 11
20
 21
62.36067977499791
  0
LINE
  5
CC
100
AcDbEntity
  8
0
  6
ByLayer
 62
  256
370
   -1
100
AcDbLine
 10
178.695048315003
 20
195.6524758424985
 11
169.7507764050038
 21
177.7639320225002
  0
LINE
  5
CD
100
AcDbEntity
  8
0
  6
ByLayer
 62
  256
370
   -1
100
AcDbLine
 10
258.9442719099991
 20
155.5278640450004
 11
178.695048315003
 21
195.6524758424985
  0
LINE
  5
CE
100
AcDbEntity
  8
0
  6
ByLayer
 62
  256
370
   -1
100
AcDbLine
 10
160.2786404500042
 20
200
 11
160.2786404500042
 21
180
  0
LINE
  5
CF
100
AcDbEntity
  8
0
  6
ByLayer
 62
  256
370
   -1
100
AcDbLine
 10
109.7213595499958
 20
200
 11
109.7213595499958
 21
180
  0
LINE
  5
D0
100
AcDbEntity
  8
0
  6
ByLayer
 62
  256
370
   -1
100
AcDbLine
 10
160.2786404500042
 20
200
 11
109.7213595499958
 21
200
  0
LINE
  5
D1
100
AcDbEntity
  8
0
  6
ByLayer
 62
  256
370
   -1
100
AcDbLine
 10
91.30495168499704
 20
195.6524758424985
 11
11.0557280900008
 21
155.5278640450004
  0
LINE
  5
D2
100
AcDbEntity
  8
0
  6
ByLayer
 62
  256
370
   -1
100
AcDbLine
 10
91.30495168499704
 20
195.6524758424985
 11
100.2492235949962
 21
177.7639320225002
  0
LINE
  5
D3
100
AcDbEntity
  8
0
  6
ByLayer
 62
  256
370
   -1
100
AcDbLine
 10
91.30495168499706
 20
4.34752415750147
 11
100.2492235949962
 21
22.2360679774998
  0
LINE
  5
D4
100
AcDbEntity
  8
0
  6
ByLayer
 62
  256
370
   -1
100
AcDbLine
 10
11.05572809000084
 20
44.47213595499959
 11
91.30495168499706
 21
4.34752415750147
  0
LINE
  5
D5
100
AcDbEntity
  8
0
  6
ByLayer
 62
  256
370
   -1
100
AcDbLine
 10
109.7213595499958
 20
0
 11
109.7213595499958
 21
20
  0
LINE
  5
D6
100
AcDbEntity
  8
0
  6
ByLayer
 62
  256
370
   -1
100
AcDbLine
 10
160.2786404500042
 20
0
 11
160.2786404500042
 21
19.99999999999997
  0
LINE
  5
D7
100
AcDbEntity
  8
0
  6
ByLayer
 62
  256
370
   -1
100
AcDbLine
 10
109.7213595499958
 20
0
 11
160.2786404500042
 21
0
  0
LINE
  5
D8
100
AcDbEntity
  8
0
  6
ByLayer
 62
  256
370
   -1
100
AcDbLine
 10
178.6950483150029
 20
4.34752415750147
 11
169.7507764050038
 21
22.23606797749975
  0
LINE
  5
D9
100
AcDbEntity
  8
0
  6
ByLayer
 62
  256
370
   -1
100
AcDbLine
 10
178.6950483150029
 20
4.34752415750147
 11
258.9442719099991
 21
44.47213595499955
  0
LINE
  5
DA
100
AcDbEntity
  8
0
  6
ByLayer
 62
  256
370
   -1
100
AcDbLine
 10
250
 20
137.6393202250021
 11
250
 21
132.6393202250021
  0
LINE
  5
DB
100
AcDbEntity
  8
0
  6
ByLayer
 62
  256
370
   -1
100
AcDbLine
 10
250
 20
62.3606797749979
 11
250
 21
67.36067977499795
  0
LINE
  5
DC
100
AcDbEntity
  8
0
  6
ByLayer
 62
  256
370
   -1
100
AcDbLine
 10
169.7507764050038
 20
22.23606797749979
 11
165.2786404500042
 21
20
  0
LINE
  5
DD
100
AcDbEntity
  8
0
  6
ByLayer
 62
  256
370
   -1
100
AcDbLine
 10
165.2786404500042
 20
20
 11
160.2786404500042
 21
20
  0
LINE
  5
DE
100
AcDbEntity
  8
0
  6
ByLayer
 62
  256
370
   -1
100
AcDbLine
 10
104.7213595499958
 20
20
 11
109.7213595499958
 21
20
  0
LINE
  5
DF
100
AcDbEntity
  8
0
  6
ByLayer
 62
  256
370
   -1
100
AcDbLine
 10
104.7213595499958
 20
20
 11
100.2492235949962
 21
22.23606797749978
  0
LINE
  5
E0
100
AcDbEntity
  8
0
  6
ByLayer
 62
  256
370
   -1
100
AcDbLine
 10
20
 20
62.36067977499791
 11
20
 21
67.36067977499791
  0
LINE
  5
E1
100
AcDbEntity
  8
0
  6
ByLayer
 62
  256
370
   -1
100
AcDbLine
 10
20
 20
132.6393202250021
 11
20
 21
137.6393202250021
  0
LINE
  5
E2
100
AcDbEntity
  8
0
  6
ByLayer
 62
  256
370
   -1
100
AcDbLine
 10
100.2492235949962
 20
177.7639320225002
 11
104.7213595499958
 21
180
  0
LINE
  5
E3
100
AcDbEntity
  8
0
  6
ByLayer
 62
  256
370
   -1
100
AcDbLine
 10
105
 20
180
 11
109.7213595499958
 21
180
  0
LINE
  5
E4
100
AcDbEntity
  8
0
  6
ByLayer
 62
  256
370
   -1
100
AcDbLine
 10
160.2786404500042
 20
180
 11
165.2786404500042
 21
180
  0
LINE
  5
E5
100
AcDbEntity
  8
0
  6
ByLayer
 62
  256
370
   -1
100
AcDbLine
 10
165.2786404500042
 20
180
 11
169.7507764050038
 21
177.7639320225002
  0
LINE
  5
E6
100
AcDbEntity
  8
0
  6
DASHEDTINY
 62
  256
370
  100
100
AcDbLine
 10
119.5677177239291
 20
165
 11
109.7029558064499
 21
165
  0
LINE
  5
E7
100
AcDbEntity
  8
0
  6
DASHEDTINY
 62
  256
370
  100
100
AcDbLine
 10
160.2173401080245
 20
165
 11
149.8423318844688
 21
165
  0
LINE
  5
E8
100
AcDbEntity
  8
0
  6
DASHEDTINY
 62
  256
370
   -1
100
AcDbLine
 10
106.6639094396995
 20
164.2007651136034
 11
96.02186898235453
 21
158.8797448849309
  0
LINE
  5
E9
100
AcDbEntity
  8
0
  6
DASHEDTINY
 62
  256
370
   -1
100
AcDbLine
 10
38.59003081172423
 20
130.1638257996158
 11
26.70820393249937
 21
124.2229123600034
  0
LINE
  5
EA
100
AcDbEntity
  8
0
  6
DASHEDTINY
 62
  256
370
   -1
100
AcDbLine
 10
174.2863726982081
 20
158.7256240446496
 11
163.1297296693587
 21
164.3039455590744
  0
LINE
  5
EB
100
AcDbEntity
  8
0
  6
DASHEDTINY
 62
  256
370
   -1
100
AcDbLine
 10
243.2917960675006
 20
124.2229123600034
 11
231.7688082384299
 21
129.9844062745387
  0
LINE
  5
EC
100
AcDbEntity
  8
0
  6
DASHEDTINY
 62
  256
370
   -1
100
AcDbLine
 10
26.70820393249937
 20
75.77708763999664
 11
38.44182231571681
 21
69.91027844838791
  0
LINE
  5
ED
100
AcDbEntity
  8
0
  6
DASHEDTINY
 62
  256
370
   -1
100
AcDbLine
 10
95.11984984250483
 20
41.57126468499389
 11
106.7547708425061
 21
35.75380418499328
  0
LINE
  5
EE
100
AcDbEntity
  8
0
  6
DASHEDTINY
 62
  256
370
   -1
100
AcDbLine
 10
150.2843962500159
 20
34.99999999999999
 11
159.1143317122669
 21
34.99999999999999
  0
LINE
  5
EF
100
AcDbEntity
  8
0
  6
DASHEDTINY
 62
  256
370
   -1
100
AcDbLine
 10
164
 20
36
 11
175.278057600716
 21
41.77021840660434
  0
LINE
  5
F0
100
AcDbEntity
  8
0
  6
DASHEDTINY
 62
  256
370
   -1
100
AcDbLine
 10
109.5059372985117
 20
35
 11
120.1625553577628
 21
35
  0
LINE
  5
F1
100
AcDbEntity
  8
0
  6
DASHEDTINY
 62
  256
370
   -1
100
AcDbLine
 10
230.7494708575243
 20
69.50592503500843
 11
243.2917960675006
 21
75.77708763999662
  0
LINE
  5
F2
100
AcDbEntity
  8
0
  6
DASHEDTINY
 62
  256
370
   -1
100
AcDbLine
 10
235
 20
71.63118960624631
 11
235
 21
89.82977819566344
  0
LINE
  5
F3
100
AcDbEntity
  8
0
  6
DASHEDTINY
 62
  256
370
   -1
100
AcDbLine
 10
235
 20
110.2085572500119
 11
235
 21
128.3688103937537
  0
LINE
  5
F4
100
AcDbEntity
  8
0
  6
DASHEDTINY
 62
  256
370
   -1
100
AcDbLine
 10
35
 20
128.3688103937537
 11
35
 21
110.2085572500119
  0
LINE
  5
F5
100
AcDbEntity
  8
0
  6
DASHEDTINY
 62
  256
370
   -1
100
AcDbLine
 10
35
 20
89.55697751233694
 11
35
 21
71.63118960624631
  0
LINE
  5
F6
100
AcDbEntity
  8
0
  6
BORDERTINY
 62
  256
370
   -1
100
AcDbLine
 10
20
 20
137.6393202250021
 11
20
 21
62.36067977499791
  0
LINE
  5
F7
100
AcDbEntity
  8
0
  6
BORDERTINY
 62
  256
370
   -1
100
AcDbLine
 10
20
 20
62.3606797749979
 11
104.7213595499958
 21
20
  0
LINE
  5
F8
100
AcDbEntity
  8
0
  6
BORDERTINY
 62
  256
370
   -1
100
AcDbLine
 10
104.7213595499958
 20
20
 11
165.2786404500042
 21
20
  0
LINE
  5
F9
100
AcDbEntity
  8
0
  6
BORDERTINY
 62
  256
370
   -1
100
AcDbLine
 10
165.2786404500042
 20
20
 11
250
 21
62.36067977499789
  0
LINE
  5
FA
100
AcDbEntity
  8
0
  6
BORDERTINY
 62
  256
370
   -1
100
AcDbLine
 10
250
 20
62.36067977499789
 11
250
 21
137.6393202250021
  0
LINE
  5
FB
100
AcDbEntity
  8
0
  6
BORDERTINY
 62
  256
370
   -1
100
AcDbLine
 10
250
 20
137.6393202250021
 11
165.2786404500042
 21
180
  0
LINE
  5
FC
100
AcDbEntity
  8
0
  6
BORDERTINY
 62
  256
370
   -1
100
AcDbLine
 10
165.2786404500042
 20
180
 11
104.7213595499958
 21
180
  0
LINE
  5
FD
100
AcDbEntity
  8
0
  6
BORDERTINY
 62
  256
370
   -1
100
AcDbLine
 10
104.7213595499958
 20
180
 11
20
 21
137.6393202250021
  0
LINE
  5
FE
100
AcDbEntity
  8
0
  6
ByLayer
 62
  256
370
   -1
100
AcDbLine
 10
270
 20
120
 11
270
 21
80
  0
LINE
  5
FF
100
AcDbEntity
  8
0
  6
ByLayer
 62
  256
370
   -1
100
AcDbLine
 10
250
 20
80
 11
270
 21
80
  0
LINE
  5
100
100
AcDbEntity
  8
0
  6
ByLayer
 62
  256
370
   -1
100
AcDbLine
 10
250
 20
120
 11
270
 21
120
  0
LINE
  5
101
100
AcDbEntity
  8
0
  6
ByLayer
 62
  256
370
   -1
100
AcDbLine
 10
0
 20
80
 11
20
 21
80
  0
LINE
  5
102
100
AcDbEntity
  8
0
  6
ByLayer
 62
  256
370
   -1
100
AcDbLine
 10
0
 20
80
 11
0
 21
120
  0
LINE
  5
103
100
AcDbEntity
  8
0
  6
ByLayer
 62
  256
370
   -1
100
AcDbLine
 10
0
 20
120
 11
20
 21
120
  0
DIMENSION
  5
104
100
AcDbEntity
  8
0
  6
DOTTINY
 62
    4
370
   25
100
AcDbDimension
  2
*D1
 10
250
 20
62.36067977499789
 30
0
 11
0
 21
0
 31
0
 70
   34
 71
    5
 72
    0
  3
Standard
 53
0
210
0
220
0
230
1
100
AcDb2LineAngularDimension
 13
165.2786404500042
 23
20
 33
0
 14
104.7213595499958
 24
20
 34
0
 15
165.2786404500042
 25
20
 35
0
 16
160
 26
50
 36
0
  0
DIMENSION
  5
105
100
AcDbEntity
  8
0
  6
DOTTINY
 62
    4
370
   25
100
AcDbDimension
  2
*D2
 10
104.7213595499958
 20
20
 30
0
 11
0
 21
0
 31
0
 70
   34
 71
    5
 72
    0
  3
Standard
 53
0
210
0
220
0
230
1
100
AcDb2LineAngularDimension
 13
20
 23
62.36067977499791
 33
0
 14
20
 24
137.6393202250021
 34
0
 15
20
 25
62.3606797749979
 35
0
 16
50
 26
50
 36
0
  0
DIMENSION
  5
106
100
AcDbEntity
  8
0
  6
DOTTINY
 62
    4
370
   25
100
AcDbDimension
  2
*D3
 10
96.57881243134227
 20
185.1047543498081
 30
0
 11
54.21813265634438
 21
169.5145844060587
 31
0
 70
   33
 71
    5
 72
    0
  3
Standard
 53
0
210
0
220
0
230
1
100
AcDbAlignedDimension
 13
20
 23
137.6393202250021
 33
0
 14
100.2492235949962
 24
177.7639320225002
 34
0
  0
DIMENSION
  5
107
100
AcDbEntity
  8
0
  6
DOTTINY
 62
    4
370
   25
100
AcDbDimension
  2
*D4
 10
160
 20
188.5961569765708
 30
0
 11
135
 21
193.5961569765708
 31
0
 70
   33
 71
    5
 72
    0
  3
Standard
 53
0
210
0
220
0
230
1
100
AcDbAlignedDimension
 13
110
 23
180
 33
0
 14
160
 24
180
 34
0
  0
DIMENSION
  5
108
100
AcDbEntity
  8
0
  6
DOTTINY
 62
    4
370
   25
100
AcDbDimension
  2
*D5
 10
91.77708763999665
 20
205.8885438199983
 30
0
 11
47.18033988749896
 21
189.1803398874989
 31
0
 70
   33
 71
    5
 72
    0
  3
Standard
 53
0
210
0
220
0
230
1
100
AcDbAlignedDimension
 13
20
 23
137.6393202250021
 33
0
 14
104.7213595499958
 24
180
 34
0
  0
DIMENSION
  5
109
100
AcDbEntity
  8
0
  6
DOTTINY
 62
    4
370
   25
100
AcDbDimension
  2
*D6
 10
165.2786404500041
 20
210
 30
0
 11
134.9999999999999
 21
215
 31
0
 70
   33
 71
    5
 72
    0
  3
Standard
 53
0
210
0
220
0
230
1
100
AcDbAlignedDimension
 13
104.7213595499958
 23
180
 33
0
 14
165.2786404500041
 24
180
 34
0
  0
DIMENSION
  5
10A
100
AcDbEntity
  8
0
  6
DOTTINY
 62
    4
370
   25
100
AcDbDimension
  2
*D7
 10
259.8541507964338
 20
80
 30
0
 11
254.8541507964338
 21
100
 31
0
 70
   33
 71
    5
 72
    0
  3
Standard
 53
0
210
0
220
0
230
1
100
AcDbAlignedDimension
 13
250
 23
120
 33
0
 14
250
 24
80
 34
0
  0
DIMENSION
  5
10B
100
AcDbEntity
  8
0
  6
DOTTINY
 62
    4
370
   25
100
AcDbDimension
  2
*D8
 10
280
 20
62.36067977499786
 30
0
 11
275
 21
99.99999999999999
 31
0
 70
   33
 71
    5
 72
    0
  3
Standard
 53
0
210
0
220
0
230
1
100
AcDbAlignedDimension
 13
250
 23
137.6393202250021
 33
0
 14
250
 24
62.36067977499786
 34
0
  0
DIMENSION
  5
10C
100
AcDbEntity
  8
0
  6
DOTTINY
 62
    4
370
   25
100
AcDbDimension
  2
*D9
 10
178.5765729834781
 20
156.991055997036
 30
0
 11
177.2647830931599
 21
165.9104672150401
 31
0
 70
   33
 71
    5
 72
    0
  3
Standard
 53
0
210
0
220
0
230
1
100
AcDbAlignedDimension
 13
169.7507764050038
 23
177.7639320225002
 33
0
 14
163.3348145212166
 24
164.2014031331455
 34
0
  0
DIMENSION
  5
10D
100
AcDbEntity
  8
0
  6
DOTTINY
 62
    4
370
   25
100
AcDbDimension
  2
*D10
 10
-1.836909530733566e-014
 20
-20
 30
0
 11
135
 21
-15
 31
0
 70
   33
 71
    5
 72
    0
  3
Standard
 53
0
210
0
220
0
230
1
100
AcDbAlignedDimension
 13
270
 23
80
 33
0
 14
0
 24
80
 34
0
  0
DIMENSION
  5
10E
100
AcDbEntity
  8
0
  6
DOTTINY
 62
    4
370
   25
100
AcDbDimension
  2
*D11
 10
-20
 20
200
 30
0
 11
-25
 21
100
 31
0
 70
   33
 71
    5
 72
    0
  3
Standard
 53
0
210
0
220
0
230
1
100
AcDbAlignedDimension
 13
110
 23
0
 33
0
 14
110
 24
200
 34
0
  0
INSERT
  5
10F
100
AcDbEntity
  8
0
  6
ByLayer
 62
  256
370
   -1
100
AcDbBlockReference
  2
Legend
 10
100
 20
80
 30
0
 41
1
 42
1
 43
0
 50
0
 70
    1
 71
    1
 44
0
 45
0
  0
DIMENSION
  5
110
100
AcDbEntity
  8
0
  6
DOTTINY
 62
    4
370
   -1
100
AcDbDimension
  2
*D12
 10
209.1231154824143
 20
158.0777624837946
 30
0
 11
209.1231154824142
 21
169.2581023712935
 31
0
 70
   33
 71
    5
  3
Standard
 53
0
210
0
220
0
230
1
100
AcDbAlignedDimension
 13
258.944271909999
 23
155.5278640450004
 33
0
 14
250
 24
137.6393202250021
 34
0
  0
MTEXT
  5
111
100
AcDbEntity
  8
0
  6
ByLayer
 62
  256
370
   -1
100
AcDbMText
 10
100
 20
110
 30
0
 40
6
 41
38.66666666666667
 71
    1
 72
    1
  1
Reference\PSize
  7
unicode
210
0
220
0
230
1
 50
0
 73
    2
 44
1
  0
ENDSEC
  0
SECTION
  2
OBJECTS
  0
DICTIONARY
  5
C
330
0
100
AcDbDictionary
281
    1
  3
ACAD_GROUP
350
D
  0
DICTIONARY
  5
D
330
C
100
AcDbDictionary
281
    1
  0
ENDSEC
  0
EOF
